:SAMPLES-PER-SECOND 30
:FRAME-RANGE 1-2643
:FULLY-SPECIFIED
:DEGREES
2561
root  70.4669 38.8519 17.8057 177.515 16.5317 178.696
RightUpLeg  -15.284 -8.86233 -9.54386
RightLeg  -3.57191 -10.0596 2.2117
RightFoot  1.04332 -1.45126 13.3855
RightToes  7.56698e-010 0 -3.6325e-017
Spine  6.61318 -1.00264 -3.03089
Spine1  3.48845 -0.771707 -1.96682
HEad  -10.4616 44.0825 -13.2946
LeftShoulder1  1.6987 -0.647271 -34.8514
LeftArm  39.5047 -15.4077 -48.8024
LeftForeArm  -3.57904 -23.2751 -5.25851
LeftHand  0.24563 -2.30667 -3.52621
RightShoulder  8.13687 10.9166 49.4255
RightArm  7.78176 1.68379 16.1836
RightForeArm  16.3075 4.57076 15.5173
RightHand  0.525138 6.21288 4.90212
LeftUpLeg  7.79971 5.79649 -4.11133
LeftLeg  12.494 -4.71543 -2.10063
LeftFoot  -17.7574 0.401032 5.24637
LeftToes  1.48244e-010 1.61973e-010 3.308e-011
2562
root  71.3291 38.562 16.7275 177.303 15.6855 178.328
RightUpLeg  -15.5984 -9.03165 -9.36606
RightLeg  -5.55804 -13.8575 3.60647
RightFoot  -0.868934 -1.32167 14.288
RightToes  7.56698e-010 0 -3.6325e-017
Spine  6.64779 -0.932344 -2.85626
Spine1  3.67735 -0.632706 -1.95869
HEad  -12.1135 43.5171 -14.776
LeftShoulder1  1.73013 -0.710838 -34.9785
LeftArm  36.0402 -15.257 -48.8431
LeftForeArm  -0.265377 -25.0802 -5.38379
LeftHand  0.211304 -2.20469 -3.05668
RightShoulder  8.39763 11.3649 49.4687
RightArm  7.11357 2.27908 15.9524
RightForeArm  16.5319 3.59433 15.8124
RightHand  0.514441 6.12259 4.83829
LeftUpLeg  9.62984 6.12469 -3.32578
LeftLeg  13.6268 -6.00748 -2.06654
LeftFoot  -20.0936 0.476834 4.64986
LeftToes  1.48244e-010 1.61973e-010 3.308e-011
2563
root  72.1198 38.5075 15.701 177.923 16.113 179.416
RightUpLeg  -16.2639 -7.92364 -6.85699
RightLeg  -3.66013 -16.6083 3.67959
RightFoot  2.97245 -0.681204 5.58219
RightToes  7.56698e-010 0 -3.6325e-017
Spine  6.98613 -0.506439 0.00355019
Spine1  4.26457 -0.261544 -1.52364
HEad  -13.3053 43.2788 -16.0805
LeftShoulder1  1.71563 -0.673675 -34.9956
LeftArm  33.9407 -14.5006 -48.236
LeftForeArm  1.28683 -25.9071 -5.49113
LeftHand  0.180063 -2.23603 -2.56451
RightShoulder  8.83201 12.1265 49.4873
RightArm  6.48487 2.96597 15.8192
RightForeArm  17.3405 1.89623 16.2473
RightHand  0.48978 6.02517 4.63539
LeftUpLeg  11.8618 5.98695 -1.60275
LeftLeg  12.5066 -5.84767 -1.20571
LeftFoot  -21.1026 0.40381 3.24328
LeftToes  1.48244e-010 1.61973e-010 3.308e-011
2564
root  72.9753 38.3726 14.5868 178.34 16.5856 -179.132
RightUpLeg  -17.8391 -6.38987 -4.72834
RightLeg  1.28698 -14.6923 2.07225
RightFoot  10.5048 -0.66828 3.8367
RightToes  7.56698e-010 0 -3.6325e-017
Spine  7.54653 -0.42963 3.02893
Spine1  4.31576 -0.0411466 -1.55699
HEad  -14.3571 43.5889 -17.2999
LeftShoulder1  1.65367 -0.516861 -35.053
LeftArm  33.1173 -13.212 -46.9094
LeftForeArm  0.787599 -25.7502 -5.48129
LeftHand  0.156392 -2.31274 -2.17464
RightShoulder  9.29657 12.905 49.6131
RightArm  4.26929 3.92961 15.6353
RightForeArm  20.3326 -0.733933 16.4453
RightHand  0.534035 6.15039 5.02133
LeftUpLeg  13.6 5.24181 0.381151
LeftLeg  13.4481 -4.86632 -0.446324
LeftFoot  -22.3717 0.219159 0.878486
LeftToes  1.48244e-010 1.61973e-010 3.308e-011
2565
root  73.8551 38.2116 13.3668 178.204 17.131 -177.682
RightUpLeg  -19.3355 -8.52735 -2.33631
RightLeg  9.21349 -11.0166 1.01875
RightFoot  10.1838 -0.591839 3.48165
RightToes  7.56698e-010 0 -3.6325e-017
Spine  8.87499 -0.663981 5.77252
Spine1  3.55286 0.0358262 -1.82773
HEad  -14.6764 44.4487 -18.286
LeftShoulder1  1.63637 -0.439421 -35.4129
LeftArm  33.9829 -11.2662 -45.0342
LeftForeArm  -2.01399 -24.3344 -5.30555
LeftHand  0.128729 -2.13304 -1.8141
RightShoulder  9.66381 13.5433 49.6367
RightArm  5.31653 4.79101 15.421
RightForeArm  19.7212 -2.13661 16.8839
RightHand  0.530882 5.99854 5.06503
LeftUpLeg  14.9439 3.5785 2.28936
LeftLeg  16.7669 -2.26886 -0.145093
LeftFoot  -22.986 -0.190362 -3.21893
LeftToes  1.48244e-010 1.61973e-010 3.308e-011
2566
root  74.745 38.1236 12.1789 178.563 17.1113 -176.325
RightUpLeg  -20.4645 -15.2337 1.35532
RightLeg  15.4472 -3.72589 0.440092
RightFoot  6.20922 -0.46576 3.2918
RightToes  7.56698e-010 0 -3.6325e-017
Spine  9.38896 -1.02217 7.50375
Spine1  3.18789 -0.268257 -0.960813
HEad  -14.4699 45.5339 -18.5978
LeftShoulder1  1.6378 -0.436762 -35.4758
LeftArm  34.8228 -9.31038 -43.5129
LeftForeArm  -5.10955 -21.0257 -6.70668
LeftHand  0.0916721 -1.72302 -1.34931
RightShoulder  9.87774 13.9555 49.5345
RightArm  4.2228 5.34 15.3364
RightForeArm  20.3132 -3.53664 16.8893
RightHand  0.560128 5.96409 5.3801
LeftUpLeg  14.1568 3.47134 4.96639
LeftLeg  22.7562 -0.416291 0.143269
LeftFoot  -21.7737 -0.805288 -10.2272
LeftToes  1.48244e-010 1.61973e-010 3.308e-011
2567
root  75.6228 38.1072 11.1473 179.481 16.1177 -175.045
RightUpLeg  -20.7952 -16.1681 3.32963
RightLeg  19.1578 -3.71678 -0.0476752
RightFoot  2.61432 -0.24705 2.16361
RightToes  7.56698e-010 0 -3.6325e-017
Spine  9.60084 -1.40925 8.31109
Spine1  2.89013 -0.844508 1.34584
HEad  -13.507 46.1686 -17.3114
LeftShoulder1  1.64897 -0.511448 -34.9926
LeftArm  26.2515 -8.29831 -42.3011
LeftForeArm  1.31089 -14.0725 -12.8252
LeftHand  0.0626002 -0.850249 -1.0856
RightShoulder  9.79712 13.8176 49.5225
RightArm  -0.380169 5.40654 15.3005
RightForeArm  23.8065 -4.92943 16.1091
RightHand  0.570753 5.94149 5.50049
LeftUpLeg  9.98426 4.54882 8.24174
LeftLeg  32.1689 1.37927 1.28623
LeftFoot  -16.2223 -0.701501 -18.5826
LeftToes  1.48244e-010 1.61973e-010 3.308e-011
2568
root  76.4252 38.1037 10.2211 -179.681 14.2777 -173.999
RightUpLeg  -20.5733 -15.9281 4.51335
RightLeg  21.7173 -5.57905 -0.841746
RightFoot  -0.595028 -0.199708 2.07919
RightToes  7.56698e-010 0 -3.6325e-017
Spine  10.099 -1.9325 9.29957
Spine1  2.2191 -1.34227 2.95581
HEad  -12.4993 45.6275 -15.1012
LeftShoulder1  1.65975 -0.602123 -34.3605
LeftArm  18.1374 -7.94764 -41.2451
LeftForeArm  7.16406 -6.18407 -17.0868
LeftHand  0.0823829 -0.127364 -1.7337
RightShoulder  9.4183 13.1693 49.4644
RightArm  0.0146175 5.18587 15.1991
RightForeArm  22.4594 -3.6853 16.1801
RightHand  0.566832 5.89764 5.48428
LeftUpLeg  3.56549 4.42248 10.538
LeftLeg  42.7046 3.34048 3.68646
LeftFoot  -5.65188 0.947465 -18.2553
LeftToes  1.48244e-010 1.61973e-010 3.308e-011
2569
root  77.0911 38.0616 9.33599 -179.571 12.4619 -173.25
RightUpLeg  -19.6417 -16.0532 5.04246
RightLeg  24.0322 -7.04895 -1.32928
RightFoot  -3.69695 -0.197947 2.58498
RightToes  7.56698e-010 0 -3.6325e-017
Spine  11.0121 -2.45813 10.8757
Spine1  1.87656 -1.50191 3.60601
HEad  -12.2952 43.9703 -13.4349
LeftShoulder1  1.68474 -0.677012 -34.237
LeftArm  17.3023 -7.33797 -40.0361
LeftForeArm  6.8994 -2.22109 -18.5299
LeftHand  0.107695 0.682442 -2.78016
RightShoulder  9.08418 12.7261 49.0153
RightArm  4.03157 4.51365 15.3845
RightForeArm  18.2265 -0.908448 16.6253
RightHand  0.504443 5.79735 4.89469
LeftUpLeg  -2.70028 3.3522 11.5162
LeftLeg  51.7645 4.45345 6.48772
LeftFoot  7.51582 1.51225 -9.36794
LeftToes  1.48244e-010 1.61973e-010 3.308e-011
2570
root  77.7541 38.1962 8.37294 -179.873 11.1092 -173.363
RightUpLeg  -17.3135 -15.3569 4.26196
RightLeg  24.5129 -9.01845 -1.07803
RightFoot  -6.01428 -0.181049 3.01135
RightToes  7.56698e-010 0 -3.6325e-017
Spine  11.6233 -2.47457 11.7554
Spine1  1.60026 -1.14664 3.2958
HEad  -11.8988 41.4521 -11.8279
LeftShoulder1  1.71817 -0.773131 -34.1161
LeftArm  18.8979 -5.96546 -38.8873
LeftForeArm  5.92194 -1.15806 -18.9831
LeftHand  0.133772 1.02472 -3.75636
RightShoulder  8.74079 12.2386 48.6247
RightArm  6.9304 3.90851 15.4475
RightForeArm  16.5314 0.889121 16.6879
RightHand  0.468439 5.81445 4.51461
LeftUpLeg  -7.54125 2.81766 11.3141
LeftLeg  57.8214 4.05319 7.4335
LeftFoot  7.29048 1.08845 -6.90125
LeftToes  1.48244e-010 1.61973e-010 3.308e-011
2571
root  78.4327 38.4683 7.33387 179.646 10.7504 -174.231
RightUpLeg  -14.248 -13.3815 2.9984
RightLeg  23.6099 -11.2038 -0.916693
RightFoot  -7.57512 -0.166002 3.48164
RightToes  7.56698e-010 0 -3.6325e-017
Spine  12.0029 -1.89175 11.7444
Spine1  1.16562 -0.289241 2.23917
HEad  -11.1307 38.6103 -10.5653
LeftShoulder1  1.67034 -0.670518 -33.9583
LeftArm  21.396 -3.67555 -37.6355
LeftForeArm  4.58046 -2.21676 -18.9426
LeftHand  0.163161 0.827221 -4.31855
RightShoulder  8.57952 12.0709 48.2396
RightArm  11.9438 3.24475 15.3757
RightForeArm  13.7353 2.79345 16.8436
RightHand  0.459247 5.79312 4.4294
LeftUpLeg  -11.2815 3.12467 9.89662
LeftLeg  60.4494 2.68515 5.68161
LeftFoot  4.85787 0.887537 -6.44043
LeftToes  1.48244e-010 1.61973e-010 3.308e-011
